<svg width="156" height="159" viewBox="0 0 156 159" fill="none" xmlns="http://www.w3.org/2000/svg">
<circle cx="75" cy="81" r="75" fill="#73258E"/>
<circle cx="81" cy="75" r="75" fill="#8542AD"/>
<path d="M109 148C130 142 127 55 127 55H99L67 100L37 33C16.156 58.1231 -2.99996 104 9.00004 118C14.6753 124.621 24 143.217 55 154C86 164.783 88 154 109 148Z" fill="#292929" fill-opacity="0.3"/>
<g filter="url(#filter0_d)">
<rect x="23" y="39.0112" width="35" height="90.637" rx="17.5" transform="rotate(-21.8234 23 39.0112)" fill="#D795FF"/>
</g>
<g filter="url(#filter1_d)">
<rect x="101.232" y="34" width="35" height="54.432" rx="17.5" transform="rotate(21.82 101.232 34)" fill="#D795FF"/>
</g>
<defs>
<filter id="filter0_d" x="24.2468" y="31.2468" width="63.6922" height="94.659" filterUnits="userSpaceOnUse" color-interpolation-filters="sRGB">
<feFlood flood-opacity="0" result="BackgroundImageFix"/>
<feColorMatrix in="SourceAlpha" type="matrix" values="0 0 0 0 0 0 0 0 0 0 0 0 0 0 0 0 0 0 127 0"/>
<feOffset dy="4"/>
<feGaussianBlur stdDeviation="2"/>
<feColorMatrix type="matrix" values="0 0 0 0 0 0 0 0 0 0 0 0 0 0 0 0 0 0 0.25 0"/>
<feBlend mode="normal" in2="BackgroundImageFix" result="effect1_dropShadow"/>
<feBlend mode="normal" in="SourceGraphic" in2="effect1_dropShadow" result="shape"/>
</filter>
<filter id="filter1_d" x="82.2462" y="39.2462" width="50.232" height="61.0491" filterUnits="userSpaceOnUse" color-interpolation-filters="sRGB">
<feFlood flood-opacity="0" result="BackgroundImageFix"/>
<feColorMatrix in="SourceAlpha" type="matrix" values="0 0 0 0 0 0 0 0 0 0 0 0 0 0 0 0 0 0 127 0"/>
<feOffset dy="4"/>
<feGaussianBlur stdDeviation="2"/>
<feColorMatrix type="matrix" values="0 0 0 0 0 0 0 0 0 0 0 0 0 0 0 0 0 0 0.25 0"/>
<feBlend mode="normal" in2="BackgroundImageFix" result="effect1_dropShadow"/>
<feBlend mode="normal" in="SourceGraphic" in2="effect1_dropShadow" result="shape"/>
</filter>
</defs>
</svg>
