<svg width="500" height="500" viewBox="0 0 500 500" fill="none" xmlns="http://www.w3.org/2000/svg">
<circle cx="250" cy="250" r="250" fill="black"/>
<rect x="118" y="185.635" width="36" height="194.105" rx="18" transform="rotate(-25.7419 118 185.635)" fill="#C53FBF"/>
<rect x="66" y="206" width="36" height="90" rx="18" transform="rotate(-90 66 206)" fill="#C53FBF"/>
<rect x="373.657" y="261.964" width="36" height="111" rx="18" transform="rotate(-107.219 373.657 261.964)" fill="#3F4CC5"/>
<rect x="373.657" y="261.964" width="36" height="111" rx="18" transform="rotate(-107.219 373.657 261.964)" fill="#3F4CC5"/>
<rect x="387.718" y="180.657" width="36" height="111" rx="18" transform="rotate(-17.2192 387.718 180.657)" fill="#3F4CC5"/>
<rect x="387.718" y="180.657" width="36" height="111" rx="18" transform="rotate(-17.2192 387.718 180.657)" fill="#3F4CC5"/>
<rect x="99.672" y="404.205" width="25.9166" height="79.9096" rx="12.9583" transform="rotate(-107.219 99.672 404.205)" fill="#EBA640"/>
<rect x="109.795" y="345.672" width="25.9166" height="79.9096" rx="12.9583" transform="rotate(-17.2192 109.795 345.672)" fill="#EBA640"/>
<rect x="326" y="135" width="36" height="115" rx="18" transform="rotate(-90 326 135)" fill="#A02CB2"/>
<rect x="330.463" y="99" width="36" height="305.588" rx="18" transform="rotate(18.2034 330.463 99)" fill="#A02CB3"/>
</svg>
